<mxfile host="app.diagrams.net" modified="2022-03-28T00:22:36.096Z" agent="5.0 (Windows NT 10.0; Win64; x64) AppleWebKit/537.36 (KHTML, like Gecko) Chrome/99.0.4844.84 Safari/537.36" etag="CfVY1K9ZsDWRCFwm8bLc" version="17.2.4" type="github">
  <diagram id="u03FpDAUuZc0-nJFetSZ" name="Page-1">
    <mxGraphModel dx="1422" dy="762" grid="1" gridSize="10" guides="1" tooltips="1" connect="1" arrows="1" fold="1" page="1" pageScale="1" pageWidth="827" pageHeight="1169" math="0" shadow="0">
      <root>
        <mxCell id="0" />
        <mxCell id="1" parent="0" />
        <mxCell id="01KZgvpuDqKfeTfP4yiK-34" style="edgeStyle=orthogonalEdgeStyle;rounded=0;orthogonalLoop=1;jettySize=auto;html=1;entryX=0;entryY=0.5;entryDx=0;entryDy=0;" edge="1" parent="1" target="01KZgvpuDqKfeTfP4yiK-33">
          <mxGeometry relative="1" as="geometry">
            <mxPoint x="540" y="300" as="sourcePoint" />
          </mxGeometry>
        </mxCell>
        <mxCell id="01KZgvpuDqKfeTfP4yiK-4" value="Aplicação" style="swimlane;horizontal=0;" vertex="1" parent="1">
          <mxGeometry y="30" width="800" height="460" as="geometry" />
        </mxCell>
        <mxCell id="01KZgvpuDqKfeTfP4yiK-33" value="Banco de dados" style="shape=dataStorage;whiteSpace=wrap;html=1;fixedSize=1;" vertex="1" parent="01KZgvpuDqKfeTfP4yiK-4">
          <mxGeometry x="610" y="205" width="150" height="80" as="geometry" />
        </mxCell>
        <mxCell id="01KZgvpuDqKfeTfP4yiK-35" value="" style="rounded=0;whiteSpace=wrap;html=1;" vertex="1" parent="01KZgvpuDqKfeTfP4yiK-4">
          <mxGeometry x="40" y="60" width="500" height="350" as="geometry" />
        </mxCell>
        <mxCell id="01KZgvpuDqKfeTfP4yiK-21" style="edgeStyle=orthogonalEdgeStyle;rounded=0;orthogonalLoop=1;jettySize=auto;html=1;entryX=0;entryY=0.5;entryDx=0;entryDy=0;" edge="1" parent="1" source="01KZgvpuDqKfeTfP4yiK-22" target="01KZgvpuDqKfeTfP4yiK-25">
          <mxGeometry relative="1" as="geometry" />
        </mxCell>
        <mxCell id="01KZgvpuDqKfeTfP4yiK-22" value="Veterinários" style="rounded=0;whiteSpace=wrap;html=1;" vertex="1" parent="1">
          <mxGeometry x="50" y="100" width="130" height="60" as="geometry" />
        </mxCell>
        <mxCell id="01KZgvpuDqKfeTfP4yiK-23" style="edgeStyle=orthogonalEdgeStyle;rounded=0;orthogonalLoop=1;jettySize=auto;html=1;entryX=1;entryY=0.5;entryDx=0;entryDy=0;" edge="1" parent="1" source="01KZgvpuDqKfeTfP4yiK-24" target="01KZgvpuDqKfeTfP4yiK-25">
          <mxGeometry relative="1" as="geometry" />
        </mxCell>
        <mxCell id="01KZgvpuDqKfeTfP4yiK-24" value="Especialidades" style="rounded=0;whiteSpace=wrap;html=1;" vertex="1" parent="1">
          <mxGeometry x="410" y="100" width="120" height="60" as="geometry" />
        </mxCell>
        <mxCell id="01KZgvpuDqKfeTfP4yiK-25" value="Especialidades do veterinário" style="rounded=0;whiteSpace=wrap;html=1;" vertex="1" parent="1">
          <mxGeometry x="230" y="100" width="120" height="60" as="geometry" />
        </mxCell>
        <mxCell id="01KZgvpuDqKfeTfP4yiK-26" style="edgeStyle=orthogonalEdgeStyle;rounded=0;orthogonalLoop=1;jettySize=auto;html=1;entryX=0.5;entryY=0;entryDx=0;entryDy=0;" edge="1" parent="1" source="01KZgvpuDqKfeTfP4yiK-27" target="01KZgvpuDqKfeTfP4yiK-29">
          <mxGeometry relative="1" as="geometry" />
        </mxCell>
        <mxCell id="01KZgvpuDqKfeTfP4yiK-27" value="Donos" style="rounded=0;whiteSpace=wrap;html=1;" vertex="1" parent="1">
          <mxGeometry x="50" y="190" width="120" height="60" as="geometry" />
        </mxCell>
        <mxCell id="01KZgvpuDqKfeTfP4yiK-28" value="" style="edgeStyle=orthogonalEdgeStyle;rounded=0;orthogonalLoop=1;jettySize=auto;html=1;" edge="1" parent="1" source="01KZgvpuDqKfeTfP4yiK-29" target="01KZgvpuDqKfeTfP4yiK-32">
          <mxGeometry relative="1" as="geometry" />
        </mxCell>
        <mxCell id="01KZgvpuDqKfeTfP4yiK-29" value="Animais" style="rounded=0;whiteSpace=wrap;html=1;" vertex="1" parent="1">
          <mxGeometry x="50" y="280" width="120" height="60" as="geometry" />
        </mxCell>
        <mxCell id="01KZgvpuDqKfeTfP4yiK-30" style="edgeStyle=orthogonalEdgeStyle;rounded=0;orthogonalLoop=1;jettySize=auto;html=1;entryX=1;entryY=0.25;entryDx=0;entryDy=0;" edge="1" parent="1" source="01KZgvpuDqKfeTfP4yiK-31" target="01KZgvpuDqKfeTfP4yiK-29">
          <mxGeometry relative="1" as="geometry" />
        </mxCell>
        <mxCell id="01KZgvpuDqKfeTfP4yiK-31" value="Tipos" style="rounded=0;whiteSpace=wrap;html=1;" vertex="1" parent="1">
          <mxGeometry x="230" y="235" width="120" height="60" as="geometry" />
        </mxCell>
        <mxCell id="01KZgvpuDqKfeTfP4yiK-32" value="Visitas" style="rounded=0;whiteSpace=wrap;html=1;" vertex="1" parent="1">
          <mxGeometry x="50" y="370" width="120" height="60" as="geometry" />
        </mxCell>
      </root>
    </mxGraphModel>
  </diagram>
</mxfile>
